<svg width="186" height="60" viewBox="0 0 186 60" fill="none" xmlns="http://www.w3.org/2000/svg">
<path d="M176.222 59.1743H6.77778C3.05 59.1743 0 55.8555 0 51.7993V7.54926C0 3.49301 3.05 0.174259 6.77778 0.174259H176.222C179.95 0.174259 183 3.49301 183 7.54926V51.7993C183 55.8555 179.95 59.1743 176.222 59.1743Z" fill="white"/>
<path d="M63.3246 15.3935C63.3246 16.5452 62.9835 17.4624 62.3004 18.1466C61.5245 18.9602 60.5133 19.3672 59.2701 19.3672C58.0796 19.3672 57.0674 18.9548 56.235 18.1289C55.4011 17.3035 54.985 16.28 54.985 15.0589C54.985 13.8371 55.4011 12.8142 56.235 11.9883C57.0674 11.1629 58.0796 10.7499 59.2701 10.7499C59.8608 10.7499 60.4264 10.8654 60.9634 11.0958C61.5003 11.3268 61.931 11.6333 62.2533 12.0173L61.5283 12.7427C60.9822 12.0903 60.2304 11.7643 59.2701 11.7643C58.4019 11.7643 57.6511 12.0694 57.0175 12.6799C56.3838 13.2911 56.067 14.0836 56.067 15.0589C56.067 16.0341 56.3838 16.8266 57.0175 17.4378C57.6511 18.0483 58.4019 18.3534 59.2701 18.3534C60.1912 18.3534 60.9591 18.0467 61.5739 17.4325C61.973 17.0323 62.2038 16.4761 62.2655 15.7618H59.2701V14.771H63.2671C63.3058 14.9864 63.3246 15.1932 63.3246 15.3935Z" fill="black"/>
<path d="M63.3246 15.3936H63.1872C63.1861 16.5191 62.8574 17.3933 62.2033 18.0496L62.2018 18.0507L62.2012 18.0518C61.4499 18.8373 60.4843 19.2283 59.2702 19.2299C58.1114 19.2283 57.1415 18.8331 56.3317 18.0319C55.5236 17.229 55.124 16.249 55.1225 15.059C55.124 13.8685 55.5236 12.889 56.3317 12.0867C57.1415 11.285 58.1114 10.8892 59.2702 10.8876C59.8431 10.8876 60.3888 10.9993 60.9091 11.2222C61.43 11.4467 61.8414 11.7409 62.148 12.1061L62.2533 12.0175L62.1561 11.9203L61.4311 12.6463L61.5283 12.7429L61.6341 12.6549C61.0627 11.9702 60.2605 11.625 59.2702 11.627C58.3697 11.6259 57.5776 11.9476 56.9224 12.5814C56.2609 13.2172 55.9285 14.0542 55.9296 15.059C55.9285 16.0638 56.2609 16.9009 56.9224 17.5367C57.5776 18.1704 58.3697 18.4921 59.2702 18.491C60.2217 18.4927 61.0327 18.1699 61.6711 17.5298C62.0976 17.1023 62.3392 16.51 62.4026 15.7737L62.4154 15.6245H59.4076V14.9086H63.2672V14.7712L63.1318 14.7954C63.1694 15.0038 63.1872 15.2019 63.1872 15.3936H63.3246H63.4621C63.4621 15.1847 63.4427 14.9699 63.4024 14.7466L63.3821 14.6337H59.1327V15.7619V15.8994H62.2655V15.7619L62.1286 15.7501C62.068 16.4419 61.8478 16.9627 61.4767 17.3354C60.886 17.9239 60.1611 18.2144 59.2702 18.2161C58.434 18.215 57.7247 17.9271 57.1131 17.3391C56.5074 16.7532 56.206 16.0052 56.2045 15.059C56.206 14.1128 56.5074 13.3648 57.1131 12.7789C57.7247 12.1909 58.434 11.9031 59.2702 11.902C60.1997 11.9042 60.9017 12.2113 61.4231 12.8316L61.5198 12.9465L62.3505 12.1146L62.4396 12.0256L62.3585 11.9293C62.0207 11.5267 61.5708 11.2071 61.0176 10.9698C60.4634 10.7318 59.8786 10.6126 59.2702 10.6126C58.048 10.6115 56.9933 11.0411 56.1378 11.8913C55.2792 12.7397 54.8464 13.8062 54.8475 15.059C54.8464 16.3113 55.2792 17.3783 56.1384 18.2274C56.9933 19.0769 58.048 19.506 59.2702 19.5049C60.5429 19.506 61.5987 19.0833 62.3998 18.2418L62.3005 18.1468L62.3976 18.244C63.1098 17.5324 63.4631 16.5712 63.4621 15.3936H63.3246Z" fill="black"/>
<path d="M69.6612 11.9481H65.9049V14.5634H69.2923V15.5546H65.9049V18.1699H69.6612V19.1832H64.8459V10.9348H69.6612V11.9481Z" fill="black"/>
<path d="M69.6611 11.9481V11.8106H65.7673V14.7009H69.1548V15.4167L65.7673 15.4171V18.3073H69.5236V19.0457H64.9833V11.0723H69.5236V11.9481H69.6611V11.8106V11.9481H69.7986V10.9348V10.7973H64.7084V19.3206H69.7986V18.1698V18.0324H66.0423V15.692H69.4297V14.5634V14.4259H66.0423V12.0856H69.7986V11.9481H69.6611Z" fill="black"/>
<path d="M74.1306 19.1832H73.07V11.9481H70.7662V10.9348H76.4344V11.9481H74.1306V19.1832Z" fill="black"/>
<path d="M74.1306 19.1831V19.0457H73.2075V11.8106H70.9037V11.0723H76.2969V11.8106H73.9931V19.1831H74.1306V19.0457V19.1831H74.2681V12.0856H76.5718V10.9348V10.7973H70.6288V11.9481V12.0856H72.9325V19.3206H74.1306H74.2681V19.1831H74.1306Z" fill="black"/>
<path d="M80.5355 19.1832V10.9348H81.595V19.1832H80.5355Z" fill="black"/>
<path d="M80.5354 19.1831H80.6729V11.0723H81.4574V19.0457H80.5354V19.1831H80.6729H80.5354V19.3206H81.5949H81.7324V10.7973H80.5354H80.3979V19.3206H80.5354V19.1831Z" fill="black"/>
<path d="M86.2964 19.1832H85.2358V11.9481H82.9321V10.9348H88.6001V11.9481H86.2964V19.1832Z" fill="black"/>
<path d="M86.2964 19.1831V19.0457H85.3732V11.8106H83.0696V11.0723H88.4627V11.8106H86.1589V19.1831H86.2964V19.0457V19.1831H86.4338V12.0856H88.7376V10.9348V10.7973H82.7947V11.9481V12.0856H85.0983V19.3206H86.2964H86.4338V19.1831H86.2964Z" fill="black"/>
<path d="M94.0647 17.4266C94.6753 18.0446 95.4223 18.3534 96.3057 18.3534C97.1891 18.3534 97.9365 18.0446 98.5461 17.4266C99.1571 16.8085 99.4633 16.0184 99.4633 15.0589C99.4633 14.0993 99.1571 13.3093 98.5461 12.6912C97.9365 12.0731 97.1891 11.7643 96.3057 11.7643C95.4223 11.7643 94.6753 12.0731 94.0647 12.6912C93.4552 13.3093 93.1492 14.0993 93.1492 15.0589C93.1492 16.0184 93.4552 16.8085 94.0647 17.4266ZM99.3301 18.1171C98.5191 18.951 97.5106 19.3672 96.3057 19.3672C95.0995 19.3672 94.0915 18.951 93.2824 18.1171C92.4709 17.2841 92.0671 16.2645 92.0671 15.0589C92.0671 13.8532 92.4709 12.8335 93.2824 12.0007C94.0915 11.1666 95.0995 10.7499 96.3057 10.7499C97.5043 10.7499 98.51 11.1688 99.3247 12.006C100.138 12.8432 100.545 13.8608 100.545 15.0589C100.545 16.2645 100.139 17.2841 99.3301 18.1171Z" fill="black"/>
<path d="M94.0647 17.4267L93.9669 17.5234C94.6001 18.1662 95.39 18.4927 96.3056 18.491C97.2206 18.4927 98.0116 18.1662 98.6437 17.5234C99.281 16.88 99.6016 16.0476 99.6007 15.059C99.6016 14.0705 99.281 13.2381 98.6437 12.5947C98.0116 11.9519 97.2206 11.6254 96.3056 11.627C95.39 11.6254 94.6001 11.9519 93.9669 12.5947C93.3311 13.2381 93.01 14.0705 93.0116 15.059C93.01 16.0476 93.3311 16.88 93.9669 17.5234L94.0647 17.4267L94.1624 17.3301C93.5792 16.7366 93.2877 15.9901 93.2866 15.059C93.2877 14.1279 93.5792 13.3815 94.1624 12.788C94.7509 12.1947 95.4538 11.9036 96.3056 11.902C97.1567 11.9036 97.8612 12.1947 98.4482 12.788C99.0325 13.3815 99.3241 14.1279 99.3252 15.059C99.3241 15.9901 99.0325 16.7366 98.4482 17.3301C97.8612 17.9234 97.1567 18.2144 96.3056 18.2161C95.4538 18.2144 94.7509 17.9234 94.1624 17.3301L94.0647 17.4267ZM99.33 18.1172L99.2317 18.0217C98.4434 18.8293 97.4795 19.2283 96.3056 19.2299C95.1312 19.2283 94.1672 18.8293 93.3804 18.0217L93.3767 18.0174L93.3804 18.0217C92.5938 17.2113 92.2056 16.234 92.2045 15.059C92.2056 13.8841 92.5938 12.9068 93.3804 12.0964C94.1672 11.2887 95.1312 10.8892 96.3056 10.8876C97.4719 10.8892 98.4337 11.2904 99.2263 12.1023C100.016 12.9164 100.406 13.8922 100.408 15.059C100.406 16.234 100.017 17.2113 99.2317 18.0217L99.33 18.1172L99.4288 18.2128C100.262 17.3569 100.684 16.2952 100.683 15.059C100.684 13.8299 100.261 12.7704 99.4233 11.9106C98.5857 11.0476 97.5364 10.6111 96.3056 10.6126C95.0683 10.6111 94.0158 11.0455 93.1835 11.9053V11.9047C92.3484 12.7612 91.9285 13.8229 91.9296 15.059C91.9285 16.2952 92.3484 17.3569 93.1835 18.2133L93.1872 18.2172L93.1835 18.2128C94.0158 19.0725 95.0683 19.506 96.3056 19.5049C97.5423 19.506 98.5948 19.0725 99.4288 18.2128L99.33 18.1172Z" fill="black"/>
<path d="M102.033 19.1832V10.9348H103.323L107.331 17.3515H107.377L107.331 15.7619V10.9348H108.392V19.1832H107.286L103.092 12.4555H103.046L103.092 14.0457V19.1832H102.033Z" fill="black"/>
<path d="M102.033 19.1831H102.17V11.0723H103.246L107.255 17.4889H107.377H107.518L107.469 15.7598V11.0723H108.254V19.0457H107.362L103.168 12.3181H103.046H102.905L102.954 14.0479V19.0457H102.033V19.1831H102.17H102.033V19.3206H103.092H103.229V14.0435L103.184 12.4518L103.046 12.4555V12.593H103.092V12.4555L102.975 12.5287L107.209 19.3206H108.392H108.529V10.7973H107.331H107.194V15.7635L107.24 17.3552L107.377 17.3515V17.214H107.331V17.3515L107.448 17.2785L103.399 10.7973H102.033H101.895V19.3206H102.033V19.1831Z" fill="black"/>
<path d="M145.145 42.5535H147.71V25.3678H145.145V42.5535ZM168.25 31.5584L165.309 39.0093H165.221L162.169 31.5584H159.406L163.983 41.9724L161.373 47.765H164.05L171.102 31.5584H168.25ZM153.703 40.6015C152.861 40.6015 151.69 40.1815 151.69 39.1419C151.69 37.8155 153.15 37.307 154.409 37.307C155.538 37.307 156.067 37.5502 156.753 37.8822C156.554 39.4738 155.183 40.6015 153.703 40.6015ZM154.012 31.1824C152.155 31.1824 150.231 32.0008 149.435 33.8138L151.712 34.7643C152.199 33.8138 153.105 33.5039 154.056 33.5039C155.382 33.5039 156.731 34.3003 156.753 35.7153V35.892C156.288 35.6266 155.294 35.2288 154.078 35.2288C151.624 35.2288 149.125 36.5771 149.125 39.0978C149.125 41.3973 151.137 42.8789 153.392 42.8789C155.117 42.8789 156.067 42.105 156.665 41.1987H156.753V42.525H159.229V35.936C159.229 32.8853 156.952 31.1824 154.012 31.1824ZM138.159 33.6505H134.51V27.7597H138.159C140.076 27.7597 141.165 29.3475 141.165 30.705C141.165 32.0368 140.076 33.6505 138.159 33.6505ZM138.093 25.3678H131.946V42.5535H134.51V36.0424H138.093C140.935 36.0424 143.73 33.984 143.73 30.705C143.73 27.4261 140.935 25.3678 138.093 25.3678ZM104.575 40.6047C102.803 40.6047 101.32 39.1209 101.32 37.083C101.32 35.0237 102.803 33.5174 104.575 33.5174C106.325 33.5174 107.698 35.0237 107.698 37.083C107.698 39.1209 106.325 40.6047 104.575 40.6047ZM107.521 32.5207H107.432C106.857 31.8343 105.749 31.2142 104.354 31.2142C101.43 31.2142 98.7506 33.7831 98.7506 37.083C98.7506 40.3609 101.43 42.9079 104.354 42.9079C105.749 42.9079 106.857 42.2876 107.432 41.5793H107.521V42.4208C107.521 44.658 106.325 45.8539 104.398 45.8539C102.826 45.8539 101.851 44.724 101.452 43.7719L99.2156 44.702C99.8579 46.2523 101.563 48.1571 104.398 48.1571C107.41 48.1571 109.957 46.385 109.957 42.0664V31.5686H107.521V32.5207ZM111.729 42.5535H114.298V25.3672H111.729V42.5535ZM118.085 36.8838C118.019 34.6246 119.835 33.4733 121.141 33.4733C122.161 33.4733 123.024 33.9823 123.312 34.7138L118.085 36.8838ZM126.058 34.935C125.572 33.6279 124.087 31.2142 121.053 31.2142C118.041 31.2142 115.538 33.5839 115.538 37.061C115.538 40.3389 118.019 42.9079 121.341 42.9079C124.021 42.9079 125.572 41.2689 126.214 40.3168L124.22 38.9877C123.556 39.9624 122.648 40.6047 121.341 40.6047C120.034 40.6047 119.104 40.0065 118.506 38.833L126.324 35.5993L126.058 34.935ZM63.772 33.0082V35.4886H69.7074C69.5301 36.8838 69.0651 37.9025 68.3563 38.6113C67.4928 39.4753 66.1417 40.4275 63.772 40.4275C60.1176 40.4275 57.2607 37.482 57.2607 33.8277C57.2607 30.1734 60.1176 27.2275 63.772 27.2275C65.7432 27.2275 67.1824 28.0028 68.2456 28.9995L69.9952 27.25C68.5115 25.8323 66.5401 24.7471 63.772 24.7471C58.7665 24.7471 54.5586 28.8223 54.5586 33.8277C54.5586 38.833 58.7665 42.9079 63.772 42.9079C66.4741 42.9079 68.5115 42.0224 70.1059 40.3609C71.7448 38.722 72.2544 36.4188 72.2544 34.5586C72.2544 33.9823 72.2103 33.4513 72.1212 33.0082H63.772ZM79.0024 40.6047C77.2302 40.6047 75.702 39.1429 75.702 37.061C75.702 34.957 77.2302 33.5174 79.0024 33.5174C80.7739 33.5174 82.3022 34.957 82.3022 37.061C82.3022 39.1429 80.7739 40.6047 79.0024 40.6047ZM79.0024 31.2142C75.7685 31.2142 73.1329 33.6725 73.1329 37.061C73.1329 40.4275 75.7685 42.9079 79.0024 42.9079C82.2356 42.9079 84.8712 40.4275 84.8712 37.061C84.8712 33.6725 82.2356 31.2142 79.0024 31.2142ZM91.8055 40.6047C90.034 40.6047 88.5056 39.1429 88.5056 37.061C88.5056 34.957 90.034 33.5174 91.8055 33.5174C93.5771 33.5174 95.1054 34.957 95.1054 37.061C95.1054 39.1429 93.5771 40.6047 91.8055 40.6047ZM91.8055 31.2142C88.5717 31.2142 85.9367 33.6725 85.9367 37.061C85.9367 40.4275 88.5717 42.9079 91.8055 42.9079C95.0388 42.9079 97.6744 40.4275 97.6744 37.061C97.6744 33.6725 95.0388 31.2142 91.8055 31.2142Z" fill="black"/>
<path d="M12.5855 45.8383L12.4834 45.7405C12.0833 45.3172 11.8472 44.66 11.8472 43.8089V44.0092V13.6058C11.8472 13.6031 11.8472 13.601 11.8472 13.5988C11.8472 13.6014 11.8472 13.6036 11.8472 13.6064V13.8072C11.8472 12.8856 12.1225 12.1914 12.5839 11.7751L29.6164 28.8072L12.5855 45.8383ZM11.8472 13.5972C11.8472 13.5214 11.8492 13.4479 11.8531 13.3754C11.8492 13.4473 11.8472 13.5214 11.8472 13.5972ZM11.8531 13.3721C11.8531 13.3712 11.8531 13.3701 11.8535 13.369C11.8531 13.3701 11.8531 13.3712 11.8531 13.3721ZM11.8535 13.3625C11.8535 13.3619 11.8535 13.3614 11.8535 13.3608C11.8535 13.3614 11.8535 13.3619 11.8535 13.3625Z" fill="url(#paint0_linear_45_14234)"/>
<path d="M35.2931 34.6879L35.4226 34.6143L42.149 30.7925C42.7903 30.4279 43.2177 29.9859 43.4309 29.5182C43.2182 29.9859 42.7907 30.4284 42.149 30.793L35.4226 34.6149L35.2931 34.6879ZM35.2947 34.4865L29.6165 28.8072L35.2942 23.1289L42.149 27.0232C43.0195 27.5179 43.5082 28.1553 43.5898 28.8067C43.5898 28.8072 43.5898 28.8083 43.5898 28.8093C43.5082 29.4591 43.0195 30.0971 42.149 30.5916L35.2947 34.4865Z" fill="url(#paint1_linear_45_14234)"/>
<path d="M13.7997 46.4869C13.3239 46.4869 12.9087 46.3323 12.585 46.0402L12.5855 46.0396C12.9093 46.3317 13.325 46.4869 13.8008 46.4869C13.842 46.4869 13.884 46.4858 13.9265 46.4838C13.8834 46.4858 13.8409 46.4869 13.7997 46.4869ZM13.8003 46.2855C13.3245 46.2861 12.9093 46.1309 12.5855 45.8388V45.8383L29.6164 28.8073L35.2947 34.4866L15.3404 45.8243C14.7883 46.1373 14.2652 46.2855 13.8003 46.2855ZM12.5807 46.0364C12.5506 46.0091 12.5211 45.9801 12.4921 45.95L12.5807 46.0364Z" fill="url(#paint2_linear_45_14234)"/>
<path d="M29.6164 28.8073L12.5839 11.7751C12.9076 11.4835 13.3222 11.3289 13.7975 11.3289C14.2636 11.3289 14.7871 11.4776 15.3403 11.7912L35.2941 23.129L29.6164 28.8073ZM35.4225 23.0007L15.3403 11.5905C14.7871 11.2768 14.2636 11.128 13.7975 11.128C13.7953 11.128 13.7938 11.128 13.7916 11.128C13.7943 11.128 13.7964 11.128 13.7997 11.128C14.2647 11.128 14.7877 11.2762 15.3403 11.5899L35.4225 23.0007Z" fill="url(#paint3_linear_45_14234)"/>
<path d="M13.9264 46.4837C14.3587 46.459 14.8372 46.3102 15.3403 46.0251L35.2931 34.6879L15.3403 46.0251C14.8376 46.3108 14.3587 46.459 13.9264 46.4837ZM12.585 46.0401L12.5807 46.0364C12.5822 46.0375 12.5839 46.039 12.585 46.0401ZM12.4921 45.9499L12.4834 45.9414V45.9408C12.4867 45.944 12.4893 45.9472 12.4921 45.9499Z" fill="white"/>
<path d="M35.2931 34.6879L35.4226 34.6143L35.2931 34.6879Z" fill="url(#paint4_linear_45_14234)"/>
<path d="M13.8008 46.4869C13.325 46.4869 12.9093 46.3317 12.5855 46.0396L12.585 46.0402C12.5839 46.0391 12.5822 46.0375 12.5807 46.0364L12.4921 45.95C12.4893 45.9472 12.4867 45.9441 12.4834 45.9409L12.5855 45.8388C12.9093 46.1309 13.3245 46.2861 13.8002 46.2855C14.2652 46.2855 14.7883 46.1373 15.3403 45.8243L35.2947 34.4866L35.4226 34.6144L35.2931 34.688L15.3403 46.0252C14.8372 46.3103 14.3587 46.459 13.9264 46.4838C13.884 46.4858 13.842 46.4869 13.8008 46.4869Z" fill="url(#paint5_linear_45_14234)"/>
<path d="M12.4834 45.9414C12.0833 45.5181 11.8472 44.8609 11.8472 44.0098V44.0092C11.8472 44.8609 12.0833 45.5176 12.4834 45.9409V45.9414Z" fill="white"/>
<path d="M12.4834 45.9409C12.0833 45.5176 11.8472 44.8609 11.8472 44.0093V43.809C11.8472 44.6601 12.0833 45.3173 12.4834 45.7406L12.5855 45.8384L12.4834 45.9409Z" fill="url(#paint6_linear_45_14234)"/>
<path d="M12.4834 45.9409L12.5855 45.8384V45.8388L12.4834 45.9409Z" fill="url(#paint7_linear_45_14234)"/>
<path d="M43.4309 29.5183C43.5366 29.2863 43.5898 29.0479 43.5898 28.8094C43.5898 28.809 43.5898 28.8084 43.5898 28.8084C43.5898 29.0473 43.5366 29.2857 43.4309 29.5183Z" fill="white"/>
<path d="M35.4225 34.6144L35.2947 34.4865L42.1489 30.5917C43.0194 30.0972 43.5081 29.4592 43.5898 28.8093C43.5898 29.0478 43.5365 29.2862 43.4308 29.5183C43.2176 29.986 42.7902 30.4279 42.1489 30.7925L35.4225 34.6144Z" fill="url(#paint8_linear_45_14234)"/>
<path d="M43.5898 28.8073V28.8067C43.5892 28.0876 43.1086 27.3686 42.1489 26.823L35.4225 23.0011H35.422L35.4225 23.0007L42.1489 26.8224C43.1097 27.3681 43.5909 28.0881 43.5898 28.8073Z" fill="#5F3838"/>
<path d="M43.5898 28.8067C43.5082 28.1554 43.0194 27.5179 42.149 27.0233L35.2942 23.129L35.422 23.0011H35.4226L42.149 26.823C43.1087 27.3686 43.5893 28.0876 43.5898 28.8067Z" fill="url(#paint9_linear_45_14234)"/>
<path d="M11.8472 13.5988C11.8472 13.5983 11.8472 13.5977 11.8472 13.5972C11.8472 13.5977 11.8472 13.5983 11.8472 13.5988ZM11.8531 13.3754C11.8531 13.3743 11.8531 13.3732 11.8531 13.3721C11.8531 13.3732 11.8531 13.3743 11.8531 13.3754ZM11.8535 13.369C11.8535 13.3668 11.8535 13.3647 11.8535 13.3625C11.8535 13.3647 11.8535 13.3668 11.8535 13.369ZM11.8535 13.3609C11.9331 11.9486 12.701 11.1328 13.7873 11.128C13.3163 11.1308 12.9061 11.2854 12.585 11.5748V11.5743L12.5811 11.5781C12.5473 11.6086 12.5151 11.6409 12.4834 11.6742C12.1225 12.056 11.8949 12.6279 11.8535 13.3609Z" fill="#5F3838"/>
<path d="M11.8472 13.8073V13.6064C11.8472 13.6037 11.8472 13.6015 11.8472 13.5988C11.8472 13.5983 11.8472 13.5977 11.8472 13.5972C11.8472 13.5214 11.8492 13.4473 11.8531 13.3755C11.8531 13.3744 11.8531 13.3733 11.8531 13.3722C11.8531 13.3712 11.8531 13.3701 11.8535 13.369C11.8535 13.3668 11.8535 13.3647 11.8535 13.3625C11.8535 13.362 11.8535 13.3614 11.8535 13.3609C11.8949 12.6279 12.1225 12.056 12.4834 11.6742L12.5839 11.7751C12.1225 12.1914 11.8472 12.8856 11.8472 13.8073ZM12.5811 11.5781L12.585 11.5743C12.5839 11.5759 12.5822 11.577 12.5811 11.5781Z" fill="url(#paint10_linear_45_14234)"/>
<path d="M35.2942 23.1289L15.3403 11.7912C14.7872 11.4776 14.2637 11.3288 13.7975 11.3288C13.3223 11.3288 12.9076 11.4835 12.5839 11.7751L12.4834 11.6742C12.5152 11.6409 12.5473 11.6086 12.5811 11.5781C12.5822 11.577 12.5839 11.5759 12.585 11.5748C12.9061 11.2854 13.3163 11.1307 13.7873 11.128C13.7884 11.128 13.7899 11.128 13.7916 11.128C13.7938 11.128 13.7953 11.128 13.7975 11.128C14.2637 11.128 14.7872 11.2767 15.3403 11.5904L35.4226 23.0006L35.422 23.0011L35.2942 23.1289Z" fill="url(#paint11_linear_45_14234)"/>
<defs>
<linearGradient id="paint0_linear_45_14234" x1="28.1062" y1="13.2851" x2="5.03487" y2="36.3564" gradientUnits="userSpaceOnUse">
<stop stop-color="#00A0FF"/>
<stop offset="0.00657445" stop-color="#00A1FF"/>
<stop offset="0.2601" stop-color="#00BEFF"/>
<stop offset="0.5122" stop-color="#00D2FF"/>
<stop offset="0.7604" stop-color="#00DFFF"/>
<stop offset="1" stop-color="#00E3FF"/>
</linearGradient>
<linearGradient id="paint1_linear_45_14234" x1="44.6504" y1="28.808" x2="11.3863" y2="28.808" gradientUnits="userSpaceOnUse">
<stop stop-color="#FFE000"/>
<stop offset="0.4087" stop-color="#FFBD00"/>
<stop offset="0.7754" stop-color="#FFA500"/>
<stop offset="1" stop-color="#FF9C00"/>
</linearGradient>
<linearGradient id="paint2_linear_45_14234" x1="32.2677" y1="31.9627" x2="0.981363" y2="63.2491" gradientUnits="userSpaceOnUse">
<stop stop-color="#FF3A44"/>
<stop offset="1" stop-color="#C31162"/>
</linearGradient>
<linearGradient id="paint3_linear_45_14234" x1="8.16921" y1="1.55392" x2="22.1398" y2="15.5245" gradientUnits="userSpaceOnUse">
<stop stop-color="#32A071"/>
<stop offset="0.0685" stop-color="#2DA771"/>
<stop offset="0.4762" stop-color="#15CF74"/>
<stop offset="0.8009" stop-color="#06E775"/>
<stop offset="1" stop-color="#00F076"/>
</linearGradient>
<linearGradient id="paint4_linear_45_14234" x1="44.6503" y1="28.8084" x2="11.3865" y2="28.8084" gradientUnits="userSpaceOnUse">
<stop stop-color="#CCB300"/>
<stop offset="0.4087" stop-color="#CC9700"/>
<stop offset="0.7754" stop-color="#CC8400"/>
<stop offset="1" stop-color="#CC7D00"/>
</linearGradient>
<linearGradient id="paint5_linear_45_14234" x1="32.2677" y1="31.9627" x2="0.981361" y2="63.2491" gradientUnits="userSpaceOnUse">
<stop stop-color="#CC2E36"/>
<stop offset="1" stop-color="#9C0E4E"/>
</linearGradient>
<linearGradient id="paint6_linear_45_14234" x1="28.1062" y1="13.2851" x2="5.03486" y2="36.3565" gradientUnits="userSpaceOnUse">
<stop stop-color="#008DE0"/>
<stop offset="0.00657445" stop-color="#008DE0"/>
<stop offset="0.2601" stop-color="#00A7E0"/>
<stop offset="0.5122" stop-color="#00B8E0"/>
<stop offset="0.7604" stop-color="#00C4E0"/>
<stop offset="1" stop-color="#00C7E0"/>
</linearGradient>
<linearGradient id="paint7_linear_45_14234" x1="32.2684" y1="31.9627" x2="0.982006" y2="63.2501" gradientUnits="userSpaceOnUse">
<stop stop-color="#E0333C"/>
<stop offset="1" stop-color="#AB0F56"/>
</linearGradient>
<linearGradient id="paint8_linear_45_14234" x1="44.6504" y1="28.8081" x2="11.3862" y2="28.8081" gradientUnits="userSpaceOnUse">
<stop stop-color="#E0C500"/>
<stop offset="0.4087" stop-color="#E0A600"/>
<stop offset="0.7754" stop-color="#E09100"/>
<stop offset="1" stop-color="#E08900"/>
</linearGradient>
<linearGradient id="paint9_linear_45_14234" x1="44.6504" y1="28.8081" x2="11.3863" y2="28.8081" gradientUnits="userSpaceOnUse">
<stop stop-color="#FFE840"/>
<stop offset="0.4087" stop-color="#FFCE40"/>
<stop offset="0.7754" stop-color="#FFBC40"/>
<stop offset="1" stop-color="#FFB540"/>
</linearGradient>
<linearGradient id="paint10_linear_45_14234" x1="28.1062" y1="13.2851" x2="5.03487" y2="36.3564" gradientUnits="userSpaceOnUse">
<stop stop-color="#40B8FF"/>
<stop offset="0.00657445" stop-color="#40B9FF"/>
<stop offset="0.2601" stop-color="#40CEFF"/>
<stop offset="0.5122" stop-color="#40DDFF"/>
<stop offset="0.7604" stop-color="#40E7FF"/>
<stop offset="1" stop-color="#40EAFF"/>
</linearGradient>
<linearGradient id="paint11_linear_45_14234" x1="8.16924" y1="1.55387" x2="22.1399" y2="15.5245" gradientUnits="userSpaceOnUse">
<stop stop-color="#65B895"/>
<stop offset="0.0685" stop-color="#62BD95"/>
<stop offset="0.4762" stop-color="#50DB97"/>
<stop offset="0.8009" stop-color="#44ED98"/>
<stop offset="1" stop-color="#40F498"/>
</linearGradient>
</defs>
</svg>
