<svg width="186" height="63" viewBox="0 0 186 63" fill="none" xmlns="http://www.w3.org/2000/svg">
<path d="M13.1262 60.8141C12.6526 60.8141 12.1905 60.808 11.7206 60.7975C10.7473 60.7848 9.77617 60.7001 8.81532 60.544C7.91937 60.3896 7.05145 60.1026 6.24016 59.6923C5.43632 59.2854 4.70314 58.7519 4.06873 58.1122C3.42514 57.48 2.88932 56.7467 2.4825 55.9415C2.0712 55.1311 1.78656 54.2624 1.63849 53.3657C1.47858 52.4021 1.39207 51.4279 1.37969 50.4512C1.37273 50.2198 1.36426 49.6079 1.35988 49.268C1.35784 49.1104 1.35693 48.9532 1.35693 48.7956V13.3813C1.35693 13.2108 1.358 13.0405 1.36035 12.87C1.36501 12.5318 1.3735 11.9529 1.37977 11.7352C1.39162 10.7601 1.47763 9.78732 1.63706 8.8253C1.7854 7.92614 2.07027 7.05492 2.48179 6.24181C2.88711 5.43714 3.41995 4.70336 4.05967 4.06891C4.69867 3.42842 5.43419 2.89214 6.2394 2.47963C7.04882 2.07065 7.91511 1.78564 8.80924 1.63415C9.77324 1.47649 10.7477 1.39125 11.7244 1.37915L13.127 1.36017H172.865L174.285 1.37991C175.253 1.39141 176.218 1.47589 177.173 1.63263C178.076 1.78602 178.952 2.07302 179.77 2.48418C181.384 3.31552 182.696 4.63078 183.524 6.2456C183.929 7.0531 184.21 7.91721 184.356 8.8086C184.517 9.77852 184.608 10.7589 184.626 11.742C184.631 12.1822 184.631 12.655 184.631 13.1256C184.643 13.7085 184.643 14.2633 184.643 14.8226V47.3531C184.643 47.9178 184.643 48.4688 184.631 49.0243C184.631 49.5298 184.631 49.9929 184.625 50.4694C184.607 51.435 184.518 52.3979 184.359 53.3504C184.214 54.2536 183.931 55.1291 183.52 55.9462C183.11 56.7427 182.577 57.4696 181.941 58.1C181.306 58.7432 180.572 59.2799 179.766 59.6894C178.95 60.1028 178.076 60.3909 177.173 60.544C176.213 60.7009 175.241 60.7856 174.268 60.7975C173.813 60.808 173.336 60.8141 172.873 60.8141L171.188 60.8172L13.1262 60.8141Z" fill="white"/>
<path d="M38.8537 30.9168C38.8711 29.5677 39.2295 28.2449 39.8955 27.0715C40.5614 25.8981 41.5134 24.9122 42.6628 24.2056C41.9326 23.1628 40.9694 22.3046 39.8495 21.6992C38.7296 21.0938 37.484 20.7578 36.2116 20.718C33.4974 20.4331 30.866 22.3422 29.4828 22.3422C28.0729 22.3422 25.9434 20.7463 23.6502 20.7935C22.1669 20.8414 20.7213 21.2727 19.4543 22.0455C18.1872 22.8182 17.142 23.9059 16.4203 25.2027C13.2944 30.615 15.6261 38.5692 18.6205 42.9441C20.1187 45.0863 21.8697 47.4793 24.1608 47.3944C26.4028 47.3014 27.2402 45.9648 29.9464 45.9648C32.6276 45.9648 33.4132 47.3944 35.7508 47.3405C38.1566 47.3014 39.6723 45.1887 41.118 43.0262C42.1944 41.4997 43.0228 39.8127 43.5723 38.0275C42.1746 37.4364 40.9819 36.4469 40.1428 35.1824C39.3037 33.9179 38.8554 32.4344 38.8537 30.9168Z" fill="black"/>
<path d="M34.4384 17.8401C35.7501 16.2654 36.3964 14.2414 36.2399 12.1979C34.2359 12.4084 32.3847 13.3662 31.0553 14.8805C30.4053 15.6202 29.9074 16.4808 29.5902 17.4131C29.273 18.3454 29.1427 19.331 29.2066 20.3137C30.209 20.324 31.2006 20.1068 32.1069 19.6783C33.0131 19.2498 33.8103 18.6213 34.4384 17.8401Z" fill="black"/>
<path d="M65.7519 42.1847H58.3945L56.6276 47.4018H53.5114L60.4801 28.0999H63.7178L70.6866 47.4018H67.5172L65.7519 42.1847ZM59.1565 39.7773H64.9884L62.1135 31.3103H62.033L59.1565 39.7773Z" fill="black"/>
<path d="M85.7368 40.3659C85.7368 44.739 83.3961 47.5487 79.8639 47.5487C78.9692 47.5955 78.0793 47.3894 77.2962 46.9539C76.5131 46.5185 75.8685 45.8714 75.4362 45.0866H75.3693V52.0569H72.4807V33.3288H75.2767V35.6694H75.3299C75.7821 34.8884 76.4376 34.2446 77.2266 33.8065C78.0157 33.3684 78.9087 33.1525 79.8108 33.1815C83.3825 33.1816 85.7368 36.0049 85.7368 40.3659ZM82.7677 40.3659C82.7677 37.5168 81.2953 35.6436 79.0488 35.6436C76.8417 35.6436 75.3572 37.5562 75.3572 40.3659C75.3572 43.2014 76.8417 45.1003 79.0488 45.1003C81.2953 45.1003 82.7676 43.2408 82.7676 40.3659H82.7677Z" fill="black"/>
<path d="M101.226 40.3659C101.226 44.739 98.885 47.5487 95.3528 47.5487C94.458 47.5955 93.5682 47.3894 92.7851 46.9539C92.002 46.5185 91.3574 45.8714 90.925 45.0866H90.8582V52.0569H87.9696V33.3288H90.7656V35.6694H90.8187C91.271 34.8884 91.9265 34.2446 92.7155 33.8065C93.5046 33.3684 94.3976 33.1525 95.2996 33.1815C98.8714 33.1816 101.226 36.0049 101.226 40.3659ZM98.2566 40.3659C98.2566 37.5168 96.7842 35.6436 94.5377 35.6436C92.3306 35.6436 90.8461 37.5562 90.8461 40.3659C90.8461 43.2014 92.3306 45.1003 94.5377 45.1003C96.7842 45.1003 98.2566 43.2408 98.2566 40.3659Z" fill="black"/>
<path d="M111.462 42.0238C111.676 43.938 113.535 45.1947 116.076 45.1947C118.511 45.1947 120.263 43.9379 120.263 42.212C120.263 40.7138 119.206 39.8167 116.705 39.202L114.203 38.5993C110.659 37.7432 109.013 36.0857 109.013 33.3959C109.013 30.0656 111.916 27.7781 116.035 27.7781C120.115 27.7781 122.911 30.0656 123.006 33.3959H120.09C119.915 31.4697 118.323 30.3069 115.996 30.3069C113.669 30.3069 112.076 31.4833 112.076 33.1955C112.076 34.5602 113.094 35.3631 115.581 35.9778L117.708 36.5C121.668 37.4366 123.312 39.0274 123.312 41.8507C123.312 45.4618 120.437 47.7235 115.862 47.7235C111.582 47.7235 108.691 45.5149 108.505 42.0237L111.462 42.0238Z" fill="black"/>
<path d="M129.549 30V33.3303H132.225V35.6178H129.549V43.3759C129.549 44.5812 130.085 45.1428 131.262 45.1428C131.579 45.1372 131.896 45.1149 132.212 45.0759V47.3498C131.683 47.4486 131.145 47.4934 130.607 47.4834C127.758 47.4834 126.647 46.4132 126.647 43.684V35.6178H124.601V33.3303H126.647V30H129.549Z" fill="black"/>
<path d="M133.774 40.3674C133.774 35.9396 136.381 33.1573 140.448 33.1573C144.528 33.1573 147.124 35.9396 147.124 40.3674C147.124 44.8073 144.542 47.5775 140.448 47.5775C136.356 47.5775 133.774 44.8073 133.774 40.3674ZM144.181 40.3674C144.181 37.3301 142.789 35.5374 140.448 35.5374C138.107 35.5374 136.715 37.3437 136.715 40.3674C136.715 43.4169 138.107 45.1959 140.448 45.1959C142.789 45.1959 144.181 43.4169 144.181 40.3674H144.181Z" fill="black"/>
<path d="M149.506 33.3287H152.261V35.7239H152.327C152.514 34.9758 152.952 34.3147 153.568 33.8517C154.185 33.3887 154.942 33.152 155.712 33.1814C156.045 33.1802 156.377 33.2164 156.702 33.2892V35.9911C156.282 35.8627 155.843 35.8037 155.404 35.8165C154.984 35.7995 154.566 35.8735 154.178 36.0334C153.789 36.1933 153.44 36.4354 153.154 36.743C152.868 37.0506 152.652 37.4164 152.521 37.8154C152.39 38.2143 152.347 38.637 152.394 39.0542V47.4013H149.505L149.506 33.3287Z" fill="black"/>
<path d="M170.02 43.2697C169.632 45.8243 167.144 47.5775 163.961 47.5775C159.867 47.5775 157.326 44.8346 157.326 40.4342C157.326 36.0201 159.88 33.1573 163.839 33.1573C167.733 33.1573 170.181 35.8319 170.181 40.0987V41.0884H160.242V41.263C160.196 41.7809 160.261 42.3026 160.432 42.7936C160.603 43.2845 160.877 43.7334 161.235 44.1104C161.593 44.4874 162.027 44.7839 162.509 44.9802C162.99 45.1765 163.508 45.2682 164.027 45.249C164.71 45.313 165.395 45.1549 165.981 44.7983C166.566 44.4416 167.021 43.9055 167.277 43.2697L170.02 43.2697ZM160.255 39.0696H167.291C167.317 38.6039 167.246 38.1379 167.084 37.7008C166.921 37.2637 166.67 36.865 166.345 36.5296C166.021 36.1942 165.631 35.9294 165.2 35.7519C164.769 35.5744 164.305 35.4879 163.839 35.4979C163.369 35.4951 162.903 35.5855 162.467 35.7638C162.032 35.9422 161.636 36.205 161.303 36.537C160.97 36.8691 160.706 37.2639 160.526 37.6985C160.346 38.1332 160.254 38.5992 160.255 39.0696V39.0696Z" fill="black"/>
<path d="M58.7951 13.5716C59.4007 13.5282 60.0084 13.6197 60.5744 13.8395C61.1403 14.0593 61.6504 14.402 62.0679 14.8429C62.4854 15.2837 62.7998 15.8117 62.9885 16.3888C63.1772 16.9659 63.2355 17.5777 63.1591 18.18C63.1591 21.143 61.5577 22.8462 58.7951 22.8462H55.4451V13.5716H58.7951ZM56.8856 21.5346H58.6342C59.0669 21.5604 59.5 21.4895 59.9019 21.3269C60.3037 21.1643 60.6643 20.9141 60.9573 20.5946C61.2502 20.275 61.4683 19.8942 61.5955 19.4798C61.7228 19.0654 61.756 18.6278 61.6928 18.1989C61.7514 17.7717 61.7148 17.3369 61.5856 16.9255C61.4564 16.5141 61.2378 16.1364 60.9455 15.8194C60.6532 15.5024 60.2944 15.254 59.8948 15.092C59.4952 14.93 59.0647 14.8584 58.6342 14.8823H56.8856V21.5346Z" fill="black"/>
<path d="M64.7864 19.3447C64.7424 18.8848 64.795 18.4207 64.9408 17.9823C65.0867 17.5438 65.3226 17.1407 65.6334 16.7988C65.9441 16.4569 66.323 16.1837 66.7455 15.9967C67.1681 15.8098 67.625 15.7132 68.0871 15.7132C68.5491 15.7132 69.0061 15.8098 69.4287 15.9967C69.8512 16.1837 70.23 16.4569 70.5408 16.7988C70.8516 17.1407 71.0875 17.5438 71.2333 17.9823C71.3792 18.4207 71.4318 18.8848 71.3878 19.3447C71.4326 19.8052 71.3806 20.2699 71.2352 20.709C71.0897 21.1482 70.854 21.552 70.5431 21.8946C70.2322 22.2372 69.8531 22.511 69.4302 22.6984C69.0072 22.8857 68.5497 22.9825 68.0871 22.9825C67.6245 22.9825 67.167 22.8857 66.744 22.6984C66.321 22.511 65.9419 22.2372 65.6311 21.8946C65.3202 21.552 65.0845 21.1482 64.939 20.709C64.7935 20.2699 64.7415 19.8052 64.7864 19.3447ZM69.967 19.3447C69.967 17.8276 69.2855 16.9404 68.0894 16.9404C66.8887 16.9404 66.2133 17.8276 66.2133 19.3448C66.2133 20.8741 66.8887 21.7545 68.0894 21.7545C69.2855 21.7544 69.967 20.868 69.967 19.3447H69.967Z" fill="black"/>
<path d="M80.1628 22.8462H78.7299L77.2834 17.6913H77.1741L75.7336 22.8462H74.3143L72.385 15.847H73.7861L75.0399 21.1878H75.1431L76.5821 15.847H77.9072L79.3462 21.1878H79.4555L80.7032 15.847H82.0845L80.1628 22.8462Z" fill="black"/>
<path d="M83.7073 15.8465H85.037V16.9584H85.1402C85.3153 16.5591 85.6106 16.2243 85.985 16.0008C86.3594 15.7772 86.7942 15.6761 87.2289 15.7114C87.5694 15.6858 87.9114 15.7372 88.2294 15.8617C88.5474 15.9862 88.8333 16.1806 89.066 16.4306C89.2987 16.6806 89.4721 16.9798 89.5734 17.3059C89.6748 17.632 89.7014 17.9768 89.6515 18.3146V22.8456H88.2702V18.6615C88.2702 17.5367 87.7814 16.9774 86.7598 16.9774C86.5286 16.9666 86.2978 17.006 86.0832 17.0927C85.8686 17.1795 85.6753 17.3117 85.5166 17.4801C85.3578 17.6486 85.2374 17.8494 85.1635 18.0688C85.0897 18.2881 85.0641 18.5209 85.0886 18.7511V22.8457H83.7073L83.7073 15.8465Z" fill="black"/>
<path d="M91.8524 13.1148H93.2337V22.8462H91.8524V13.1148Z" fill="black"/>
<path d="M95.1539 19.3424C95.1099 18.8824 95.1626 18.4183 95.3085 17.9799C95.4544 17.5414 95.6903 17.1383 96.0011 16.7964C96.3119 16.4544 96.6907 16.1812 97.1133 15.9943C97.5359 15.8073 97.9929 15.7108 98.455 15.7108C98.9171 15.7108 99.3741 15.8073 99.7966 15.9943C100.219 16.1812 100.598 16.4544 100.909 16.7964C101.22 17.1383 101.456 17.5414 101.601 17.9799C101.747 18.4183 101.8 18.8824 101.756 19.3424C101.801 19.8029 101.749 20.2676 101.603 20.7068C101.458 21.1459 101.222 21.5497 100.911 21.8923C100.6 22.2349 100.221 22.5087 99.7981 22.696C99.3751 22.8834 98.9176 22.9802 98.455 22.9802C97.9924 22.9802 97.5348 22.8834 97.1119 22.696C96.6889 22.5087 96.3097 22.2349 95.9989 21.8923C95.688 21.5497 95.4522 21.1459 95.3067 20.7068C95.1611 20.2676 95.1091 19.8029 95.1539 19.3424ZM100.335 19.3424C100.335 17.8253 99.653 16.9381 98.4569 16.9381C97.2562 16.9381 96.5808 17.8253 96.5808 19.3425C96.5808 20.8718 97.2562 21.7521 98.4569 21.7521C99.653 21.7521 100.335 20.8657 100.335 19.3424H100.335Z" fill="black"/>
<path d="M103.21 20.868C103.21 19.6082 104.148 18.8819 105.813 18.7786L107.709 18.6693V18.0652C107.709 17.326 107.221 16.9086 106.276 16.9086C105.505 16.9086 104.971 17.1916 104.818 17.6865H103.48C103.622 16.4843 104.752 15.7132 106.34 15.7132C108.095 15.7132 109.085 16.5867 109.085 18.0652V22.8474H107.755V21.8638H107.646C107.424 22.2166 107.112 22.5043 106.743 22.6973C106.374 22.8904 105.96 22.982 105.543 22.9627C105.249 22.9933 104.952 22.962 104.671 22.8707C104.391 22.7795 104.132 22.6304 103.912 22.433C103.692 22.2357 103.516 21.9944 103.395 21.7249C103.274 21.4553 103.211 21.1635 103.21 20.868ZM107.709 20.27V19.6848L106 19.7941C105.036 19.8586 104.599 20.1865 104.599 20.8035C104.599 21.4335 105.146 21.8 105.897 21.8C106.117 21.8223 106.34 21.8001 106.551 21.7347C106.762 21.6692 106.958 21.562 107.128 21.4192C107.297 21.2765 107.435 21.1012 107.535 20.9037C107.635 20.7063 107.694 20.4908 107.709 20.27Z" fill="black"/>
<path d="M110.9 19.3436C110.9 17.132 112.037 15.731 113.805 15.731C114.243 15.7108 114.677 15.8156 115.057 16.033C115.437 16.2505 115.747 16.5716 115.952 16.9589H116.055V13.1148H117.436V22.8462H116.113V21.7404H116.003C115.783 22.1251 115.462 22.4422 115.075 22.6575C114.687 22.8727 114.248 22.9779 113.805 22.9615C112.025 22.9616 110.9 21.5605 110.9 19.3436ZM112.327 19.3436C112.327 20.8281 113.027 21.7214 114.197 21.7214C115.361 21.7214 116.081 20.8153 116.081 19.3497C116.081 17.891 115.354 16.9719 114.197 16.9719C113.034 16.9719 112.327 17.8712 112.327 19.3436H112.327Z" fill="black"/>
<path d="M123.151 19.3447C123.107 18.8848 123.16 18.4207 123.306 17.9823C123.451 17.5438 123.687 17.1407 123.998 16.7988C124.309 16.4569 124.688 16.1837 125.11 15.9967C125.533 15.8098 125.99 15.7132 126.452 15.7132C126.914 15.7132 127.371 15.8098 127.793 15.9967C128.216 16.1837 128.595 16.4569 128.906 16.7988C129.216 17.1407 129.452 17.5438 129.598 17.9823C129.744 18.4207 129.797 18.8848 129.753 19.3447C129.797 19.8052 129.745 20.2699 129.6 20.709C129.454 21.1482 129.219 21.552 128.908 21.8946C128.597 22.2372 128.218 22.511 127.795 22.6984C127.372 22.8857 126.914 22.9825 126.452 22.9825C125.989 22.9825 125.532 22.8857 125.109 22.6984C124.686 22.511 124.307 22.2372 123.996 21.8946C123.685 21.552 123.449 21.1482 123.304 20.709C123.158 20.2699 123.106 19.8052 123.151 19.3447ZM128.332 19.3447C128.332 17.8276 127.65 16.9404 126.454 16.9404C125.253 16.9404 124.578 17.8276 124.578 19.3448C124.578 20.8741 125.253 21.7545 126.454 21.7545C127.65 21.7544 128.332 20.868 128.332 19.3447Z" fill="black"/>
<path d="M131.606 15.8465H132.936V16.9584H133.039C133.214 16.5591 133.509 16.2243 133.884 16.0008C134.258 15.7772 134.693 15.6761 135.128 15.7114C135.468 15.6858 135.81 15.7372 136.128 15.8617C136.446 15.9862 136.732 16.1806 136.965 16.4306C137.197 16.6806 137.371 16.9798 137.472 17.3059C137.573 17.632 137.6 17.9768 137.55 18.3146V22.8456H136.169V18.6615C136.169 17.5367 135.68 16.9774 134.659 16.9774C134.427 16.9666 134.196 17.006 133.982 17.0927C133.767 17.1795 133.574 17.3117 133.415 17.4801C133.257 17.6486 133.136 17.8494 133.062 18.0688C132.988 18.2881 132.963 18.5209 132.987 18.7511V22.8457H131.606V15.8465Z" fill="black"/>
<path d="M145.355 14.1045V15.8789H146.872V17.0424H145.355V20.6414C145.355 21.3746 145.657 21.6956 146.345 21.6956C146.521 21.6951 146.697 21.6844 146.872 21.6637V22.8143C146.624 22.8587 146.372 22.8823 146.12 22.8849C144.584 22.8849 143.972 22.3445 143.972 20.9951V17.0424H142.861V15.8789H143.972V14.1045H145.355Z" fill="black"/>
<path d="M148.759 13.1148H150.128V16.9719H150.237C150.421 16.5688 150.724 16.2321 151.106 16.0078C151.488 15.7834 151.93 15.6822 152.371 15.718C152.71 15.6996 153.049 15.7562 153.363 15.8837C153.677 16.0112 153.96 16.2066 154.19 16.4558C154.42 16.705 154.593 17.002 154.695 17.3255C154.797 17.649 154.827 17.9911 154.782 18.3274V22.8462H153.399V18.6681C153.399 17.5502 152.878 16.984 151.902 16.984C151.665 16.9645 151.426 16.9971 151.203 17.0796C150.979 17.1621 150.776 17.2924 150.608 17.4614C150.441 17.6304 150.312 17.8341 150.231 18.0581C150.15 18.2821 150.119 18.5212 150.14 18.7584V22.8462H148.759L148.759 13.1148Z" fill="black"/>
<path d="M162.836 20.9553C162.648 21.595 162.241 22.1483 161.687 22.5185C161.133 22.8886 160.466 23.0521 159.803 22.9802C159.342 22.9924 158.883 22.904 158.46 22.7214C158.036 22.5387 157.658 22.266 157.35 21.9223C157.042 21.5786 156.813 21.172 156.678 20.7309C156.544 20.2897 156.507 19.8245 156.57 19.3675C156.508 18.9092 156.546 18.443 156.68 18.0005C156.815 17.558 157.043 17.1496 157.349 16.8029C157.655 16.4561 158.032 16.1792 158.454 15.9908C158.876 15.8024 159.334 15.7069 159.797 15.7109C161.744 15.7109 162.919 17.0414 162.919 19.2392V19.7212H157.977V19.7986C157.955 20.0555 157.987 20.314 158.072 20.5577C158.156 20.8013 158.29 21.0247 158.465 21.2135C158.641 21.4023 158.854 21.5523 159.091 21.6539C159.328 21.7556 159.583 21.8066 159.841 21.8038C160.171 21.8434 160.506 21.7839 160.802 21.6328C161.099 21.4817 161.344 21.2459 161.506 20.9552L162.836 20.9553ZM157.977 18.6997H161.512C161.529 18.4648 161.497 18.2288 161.418 18.007C161.339 17.7851 161.214 17.5823 161.052 17.4116C160.89 17.2408 160.694 17.1059 160.476 17.0155C160.259 16.925 160.025 16.8811 159.789 16.8865C159.55 16.8835 159.313 16.9284 159.092 17.0184C158.871 17.1085 158.67 17.2419 158.501 17.4109C158.332 17.5799 158.198 17.781 158.108 18.0023C158.018 18.2237 157.974 18.4608 157.977 18.6997H157.977Z" fill="black"/>
</svg>
