<svg width="281" height="91" viewBox="0 0 281 91" fill="none" xmlns="http://www.w3.org/2000/svg">
<g clip-path="url(#clip0_201_359)">
<path d="M121.766 89.6872H99.0034L113.241 1.59674H136.003L121.766 89.6872Z" fill="white"/>
<path d="M204.284 3.7503C199.794 1.96791 192.673 -6.10352e-05 183.868 -6.10352e-05C161.388 -6.10352e-05 145.559 11.9946 145.462 29.1434C145.275 41.7957 156.795 48.8231 165.411 53.0418C174.218 57.3526 177.212 60.1663 177.212 64.0089C177.122 69.9103 170.095 72.6306 163.542 72.6306C154.454 72.6306 149.584 71.2281 142.184 67.9448L139.187 66.5373L136.001 86.3117C141.34 88.7455 151.176 90.9053 161.388 91C185.273 91 200.822 79.1909 201.007 60.9162C201.098 50.8882 195.014 43.2044 181.9 36.9256C173.938 32.895 169.062 30.1772 169.062 26.0532C169.156 22.304 173.186 18.464 182.173 18.464C189.574 18.2759 195.011 20.0558 199.13 21.837L201.188 22.7724L204.284 3.7503Z" fill="white"/>
<path d="M234.538 58.4799C236.413 53.4192 243.626 33.8329 243.626 33.8329C243.532 34.0209 245.497 28.6788 246.621 25.3992L248.212 32.9896C248.212 32.9896 252.522 54.0756 253.459 58.4799C249.901 58.4799 239.034 58.4799 234.538 58.4799ZM262.636 1.59674H245.029C239.599 1.59674 235.474 3.18856 233.132 8.90564L199.32 89.6859H223.205C223.205 89.6859 227.137 78.8135 227.982 76.4718C230.602 76.4718 253.837 76.4718 257.208 76.4718C257.861 79.5646 259.924 89.6859 259.924 89.6859H281L262.636 1.59674Z" fill="white"/>
<path d="M79.9909 1.59674L57.6985 61.666L55.2625 49.4832C51.1411 35.4259 38.2154 20.153 23.7911 12.5588L44.2102 89.5937H68.2814L104.061 1.59674H79.9909Z" fill="white"/>
<path d="M36.9981 1.59674H0.374672L0 3.37663C28.5685 10.6868 47.4889 28.3076 55.2625 49.487L47.301 9.00155C45.9902 3.37539 41.9622 1.78233 36.9981 1.59674Z" fill="white"/>
</g>
<defs>
<clipPath id="clip0_201_359">
<rect width="281" height="91" fill="white"/>
</clipPath>
</defs>
</svg>
