<svg width="34" height="34" viewBox="0 0 34 34" fill="none" xmlns="http://www.w3.org/2000/svg">
<path d="M24.1344 12.3656C24.2506 12.4817 24.3428 12.6196 24.4057 12.7713C24.4686 12.9231 24.501 13.0857 24.501 13.25C24.501 13.4143 24.4686 13.5769 24.4057 13.7287C24.3428 13.8804 24.2506 14.0183 24.1344 14.1344L15.3844 22.8844C15.2683 23.0006 15.1304 23.0928 14.9787 23.1557C14.8269 23.2186 14.6643 23.251 14.5 23.251C14.3357 23.251 14.1731 23.2186 14.0213 23.1557C13.8696 23.0928 13.7317 23.0006 13.6156 22.8844L9.86563 19.1344C9.63108 18.8998 9.49931 18.5817 9.49931 18.25C9.49931 17.9183 9.63108 17.6002 9.86563 17.3656C10.1002 17.1311 10.4183 16.9993 10.75 16.9993C11.0817 16.9993 11.3998 17.1311 11.6344 17.3656L14.5 20.2328L22.3656 12.3656C22.4817 12.2494 22.6196 12.1572 22.7713 12.0943C22.9231 12.0314 23.0857 11.999 23.25 11.999C23.4143 11.999 23.5769 12.0314 23.7287 12.0943C23.8804 12.1572 24.0183 12.2494 24.1344 12.3656ZM33.25 17C33.25 20.2139 32.297 23.3557 30.5114 26.028C28.7258 28.7003 26.1879 30.7831 23.2186 32.013C20.2493 33.243 16.982 33.5648 13.8298 32.9378C10.6776 32.3108 7.78213 30.7631 5.50952 28.4905C3.23692 26.2179 1.68926 23.3224 1.06225 20.1702C0.435237 17.018 0.757041 13.7507 1.98696 10.7814C3.21689 7.81209 5.29969 5.27419 7.97199 3.48862C10.6443 1.70305 13.7861 0.75 17 0.75C21.3084 0.75455 25.439 2.46806 28.4855 5.51454C31.5319 8.56102 33.2455 12.6916 33.25 17ZM30.75 17C30.75 14.2805 29.9436 11.6221 28.4327 9.36091C26.9218 7.09973 24.7744 5.33736 22.2619 4.29666C19.7494 3.25595 16.9848 2.98366 14.3175 3.5142C11.6503 4.04475 9.20026 5.35431 7.27729 7.27728C5.35432 9.20025 4.04476 11.6503 3.51421 14.3175C2.98366 16.9847 3.25596 19.7494 4.29666 22.2619C5.33737 24.7744 7.09974 26.9218 9.36092 28.4327C11.6221 29.9436 14.2805 30.75 17 30.75C20.6455 30.7459 24.1404 29.2959 26.7182 26.7182C29.2959 24.1404 30.7459 20.6455 30.75 17Z" fill="#6929BB"/>
</svg>
